<?xml version="1.0" encoding="UTF-8"?>
<svg width="79px" height="92px" viewBox="0 0 79 92" version="1.1" xmlns="http://www.w3.org/2000/svg" xmlns:xlink="http://www.w3.org/1999/xlink">
    <!-- Generator: Sketch 46.2 (44496) - http://www.bohemiancoding.com/sketch -->
    <title>Sj</title>
    <desc>Created with Sketch.</desc>
    <defs>
        <linearGradient x1="50%" y1="-8.15320034e-15%" x2="50%" y2="97.6422991%" id="linearGradient-1">
            <stop stop-color="#10967E" offset="0%"></stop>
            <stop stop-color="#0BB395" offset="100%"></stop>
        </linearGradient>
        <linearGradient x1="50%" y1="-8.15320034e-15%" x2="50%" y2="97.6422991%" id="linearGradient-2">
            <stop stop-color="#0AB697" offset="0%"></stop>
            <stop stop-color="#109581" offset="100%"></stop>
        </linearGradient>
        <linearGradient x1="70.8719075%" y1="95.3983339%" x2="70.8719092%" y2="31.3308874%" id="linearGradient-3">
            <stop stop-color="#0AB697" offset="0%"></stop>
            <stop stop-color="#10957D" offset="100%"></stop>
        </linearGradient>
    </defs>
    <g id="Page-1" stroke="none" stroke-width="1" fill="none" fill-rule="evenodd">
        <g id="Custom-Preset" transform="translate(-201.000000, -85.000000)">
            <g id="Sj" transform="translate(201.000000, 85.000000)">
                <g id="Group-12" transform="translate(13.000000, 0.000000)">
                    <g id="Group-6">
                        <g id="Group-9">
                            <g id="Group-2">
                                <path d="M52.7627737,9.76361275 L40.3287693,9.76361275 L40.3287693,22.0768333 L40.3287693,43.0526434 C40.3287693,46.9039396 37.950681,48.8295878 34.4175213,48.8295878 C30.8843615,48.8295878 28.098601,46.8351665 28.098601,43.0526434 L28.098601,37.0006063 L16.6158319,39.0825613 L16.6158319,43.2589628 C16.6158319,53.7812544 24.6333866,59.8332914 34.4175213,59.8332914 C44.2016559,59.8332914 52.7627737,53.7812544 52.7627737,43.2589628 L52.7627737,9.76361275 Z" id="SJ" fill="url(#linearGradient-1)"></path>
                                <path d="M52.7807613,10.8647862 C52.7448786,4.87847049 47.8814077,0.0364926025 41.8866493,0.0356641735 C31.1536754,0.0342047156 23.4580075,0.0348741352 18.7996454,0.0376961881 C9.64891636,0.0432397334 0.477150291,4.40702797 0.68087756,14.7862268 C0.816768319,25.2397453 7.61130626,28.8159489 17.9390039,29.5724536 C22.6951805,29.8475462 26.6360125,30.6040508 26.6360125,33.973935 C26.6360125,39.6133332 11.7559744,39.54456 11.7559744,33.4237499 L0.0014237662,33.4237499 C-0.270357752,54.6058794 38.4585085,54.2620136 38.4585085,34.0427082 C38.4585085,22.0074073 29.2179369,20.5631712 19.7735292,19.531574 C15.4929703,19.050162 11.9598105,18.2936573 12.2315921,14.6486805 C12.4321734,11.8401685 15.6062465,11.0297293 18.7996454,10.9314816 C20.1675034,10.8893983 25.0708046,10.873504 33.509549,10.8837986 C39.359693,11.1664234 43.5588929,12.9986368 46.1071488,16.3804391 C50.5266076,22.2455233 50.6563929,23.1093836 52.7938853,32.5057817 C52.7938853,31.2144796 52.7938853,24.0008145 52.7938853,10.8647862 L52.7807613,10.8647862 Z" id="Path" fill="url(#linearGradient-2)"></path>
                                <path d="M11.7559744,33.4237499 L0.0014237662,33.4237499 C-0.270357752,54.6058794 38.4585085,54.2620136 38.4585085,34.0427082 C38.4585085,22.0074073 29.2179369,20.5631712 19.7735292,19.531574 C15.4929703,19.050162 11.9598105,18.2936573 12.2315921,14.6486805 C12.4321734,11.8401685 8.42355197,20.0888789 24.2623367,30.2004206 C25.4784748,31.1148482 26.6172465,31.5318971 26.6360125,33.973935 C26.6360125,39.6133332 11.7559744,39.54456 11.7559744,33.4237499 Z" id="Path" fill="url(#linearGradient-3)"></path>
                            </g>
                        </g>
                    </g>
                </g>
                <path d="M4.312,91.182 C5.39,91.182 6.286,90.916 7,90.398 C7.714,89.88 8.078,89.166 8.078,88.256 C8.022,87.15 7.56,86.45 6.692,85.988 C6.076,85.652 5.642,85.484 4.9,85.26 L3.78,84.938 C3.542,84.84 3.094,84.7 2.912,84.588 C2.576,84.35 2.338,84.126 2.338,83.706 C2.338,82.978 2.996,82.46 4.34,82.46 C5.418,82.46 6.454,82.768 7.448,83.37 L7.448,81.83 C6.538,81.284 5.488,81.018 4.312,81.018 C2.114,81.018 0.756,82.068 0.756,83.692 C0.756,84.588 1.05,85.218 1.764,85.666 C2.128,85.876 2.45,86.044 2.744,86.156 C3.038,86.268 3.472,86.408 4.018,86.562 L4.214,86.618 C4.844,86.8 5.11,86.87 5.558,87.08 C5.782,87.178 5.95,87.276 6.062,87.374 C6.3,87.584 6.496,87.892 6.496,88.284 C6.496,89.194 5.516,89.74 4.228,89.74 C3.556,89.74 2.884,89.614 2.212,89.362 C1.554,89.11 1.022,88.816 0.63,88.466 L0.63,90.132 C1.596,90.832 2.814,91.182 4.312,91.182 Z M11.1224615,91.182 C13.1244615,91.182 14.3984615,90.188 14.3984615,87.892 L14.3984615,81.2 L12.8584615,81.2 L12.8584615,87.64 C12.8584615,89.096 12.1864615,89.74 10.8284615,89.74 C10.0584615,89.74 9.38646149,89.516 8.82646149,89.054 L8.82646149,90.58 C9.41446149,90.986 10.1844615,91.182 11.1224615,91.182 Z M20.564923,87.822 L20.564923,86.464 L16.434923,86.464 L16.434923,87.822 L20.564923,87.822 Z M24.2533845,91 L22.7133845,91 L22.7133845,81.2 L26.9273845,81.2 C27.9493845,81.2 28.7473845,81.466 29.3213845,81.998 C29.9093845,82.516 30.2033845,83.202 30.2033845,84.042 C30.2033845,84.896 29.9093845,85.596 29.3213845,86.142 C28.7473845,86.688 27.9493845,86.954 26.9273845,86.954 L24.2533845,86.954 L24.2533845,91 Z M24.2533845,82.614 L24.2533845,85.54 L26.8013845,85.54 C27.9633845,85.54 28.6493845,85.008 28.6493845,84.07 C28.6493845,83.132 27.9633845,82.614 26.8013845,82.614 L24.2533845,82.614 Z M33.1218459,91.182 C33.5698459,91.182 33.9478459,91.112 34.2418459,90.958 L34.2418459,89.656 C34.0738459,89.754 33.8778459,89.796 33.6678459,89.796 C33.1638459,89.796 32.9118459,89.516 32.9118459,88.956 L32.9118459,81.2 L31.3998459,81.2 L31.3998459,89.376 C31.3998459,90.678 32.1278459,91.182 33.1218459,91.182 Z M41.6963074,89.824 C41.8503074,89.824 41.9763074,89.796 42.1023074,89.726 L42.1023074,90.874 C41.8923074,91.028 41.5983074,91.098 41.2203074,91.098 C40.4503074,91.098 39.9603074,90.776 39.7783074,90.118 C39.1483074,90.832 38.3083074,91.182 37.2443074,91.182 C36.5023074,91.182 35.8863074,90.972 35.3963074,90.566 C34.9063074,90.16 34.6683074,89.586 34.6683074,88.872 C34.6683074,88.144 34.9343074,87.584 35.4663074,87.192 C35.9983074,86.786 36.6563074,86.59 37.4263074,86.59 C38.2523074,86.59 38.9943074,86.772 39.6243074,87.122 L39.6243074,86.744 C39.6243074,85.75 38.9523074,85.246 37.6083074,85.246 C36.8243074,85.246 36.0963074,85.456 35.4383074,85.862 L35.4383074,84.532 C36.1243074,84.14 36.9503074,83.944 37.9443074,83.944 C39.8483074,83.944 41.1223074,84.896 41.1223074,86.576 L41.1223074,89.138 C41.1223074,89.572 41.3603074,89.824 41.6963074,89.824 Z M39.6243074,89.054 L39.6243074,88.214 C39.0503074,87.892 38.4343074,87.724 37.7903074,87.724 C36.7823074,87.724 36.1803074,88.116 36.1803074,88.788 C36.1803074,89.516 36.7823074,89.88 37.6643074,89.88 C38.4483074,89.88 39.1903074,89.516 39.6243074,89.054 Z M43.7327689,89.124 C43.7327689,90.468 44.5447689,91.182 45.8327689,91.182 C46.5187689,91.182 47.0367689,91.07 47.3587689,90.846 L47.3587689,89.544 C47.0367689,89.712 46.7007689,89.796 46.3227689,89.796 C45.5947689,89.796 45.2447689,89.474 45.2447689,88.69 L45.2447689,85.456 L47.4147689,85.456 L47.4147689,84.126 L45.2447689,84.126 L45.2447689,82.124 L43.7327689,82.124 L43.7327689,84.126 L42.2627689,84.126 L42.2627689,85.456 L43.7327689,85.456 L43.7327689,89.124 Z M51.0052304,85.456 L53.2592304,85.456 L53.2592304,84.126 L51.0052304,84.126 L51.0052304,83.496 C51.0052304,82.754 51.3552304,82.376 52.0692304,82.376 C52.4192304,82.376 52.8252304,82.46 53.2592304,82.628 L53.2592304,81.354 C52.7832304,81.158 52.2512304,81.06 51.6492304,81.06 C50.2492304,81.06 49.4932304,81.928 49.4932304,83.23 L49.4932304,84.126 L48.2052304,84.126 L48.2052304,85.456 L49.4932304,85.456 L49.4932304,91 L51.0052304,91 L51.0052304,85.456 Z M57.3396919,89.852 C57.9836919,89.852 58.5156919,89.628 58.9496919,89.194 C59.3836919,88.76 59.5936919,88.214 59.5936919,87.556 C59.5936919,86.912 59.3836919,86.366 58.9496919,85.932 C58.5156919,85.498 57.9836919,85.274 57.3396919,85.274 C56.6956919,85.274 56.1496919,85.498 55.7156919,85.932 C55.2816919,86.366 55.0716919,86.912 55.0716919,87.556 C55.0716919,88.214 55.2816919,88.76 55.7156919,89.194 C56.1496919,89.628 56.6816919,89.852 57.3396919,89.852 Z M57.3396919,91.182 C56.2336919,91.182 55.3376919,90.832 54.6236919,90.132 C53.9096919,89.432 53.5596919,88.578 53.5596919,87.556 C53.5596919,86.548 53.9096919,85.694 54.6236919,84.994 C55.3376919,84.294 56.2336919,83.944 57.3396919,83.944 C58.4316919,83.944 59.3276919,84.294 60.0416919,84.994 C60.7556919,85.694 61.1056919,86.548 61.1056919,87.556 C61.1056919,88.564 60.7556919,89.418 60.0416919,90.132 C59.3276919,90.832 58.4316919,91.182 57.3396919,91.182 Z M63.8421534,91 L63.8421534,86.786 C64.1641534,86.072 65.0181534,85.442 66.0961534,85.442 C66.2501534,85.442 66.3901534,85.456 66.5161534,85.47 L66.5161534,83.958 C66.4741534,83.944 66.4321534,83.944 66.3761534,83.944 C65.3121534,83.944 64.3041534,84.518 63.8421534,85.316 L63.8421534,84.126 L62.3301534,84.126 L62.3301534,91 L63.8421534,91 Z M68.9586149,91 L68.9586149,86.464 C69.2946149,85.834 70.0226149,85.358 70.7366149,85.358 C71.6746149,85.358 72.1506149,85.918 72.1506149,87.052 L72.1506149,91 L73.6626149,91 L73.6626149,86.506 C73.9566149,85.848 74.6986149,85.358 75.4266149,85.358 C76.3646149,85.358 76.8266149,85.918 76.8266149,87.052 L76.8266149,91 L78.3386149,91 L78.3386149,86.702 C78.3386149,84.91 77.4146149,83.944 75.9026149,83.944 C74.7966149,83.944 73.8866149,84.462 73.3966149,85.176 C73.1026149,84.448 72.3046149,83.944 71.2266149,83.944 C70.2326149,83.944 69.4766149,84.308 68.9586149,85.022 L68.9586149,84.126 L67.4466149,84.126 L67.4466149,91 L68.9586149,91 Z" id="SJ-Platform" fill="#0F9A81"></path>
            </g>
        </g>
    </g>
</svg>